<mxfile host="app.diagrams.net" modified="2023-04-12T14:44:30.658Z" agent="Mozilla/5.0 (Macintosh; Intel Mac OS X 10.15; rv:109.0) Gecko/20100101 Firefox/111.0" etag="Cpgr5nN1PHHm8KGtrcZ1" version="21.1.7" type="google">
  <diagram name="Pagina-1" id="wqFeHAK7h4sBHk-sq_gN">
    <mxGraphModel grid="1" page="1" gridSize="10" guides="1" tooltips="1" connect="1" arrows="1" fold="1" pageScale="1" pageWidth="827" pageHeight="1169" math="0" shadow="0">
      <root>
        <mxCell id="0" />
        <mxCell id="1" parent="0" />
        <mxCell id="pBSp9jqYYKa7Kl2V3MY5-5" value="" style="edgeStyle=orthogonalEdgeStyle;rounded=0;orthogonalLoop=1;jettySize=auto;html=1;" edge="1" parent="1" source="pBSp9jqYYKa7Kl2V3MY5-1" target="pBSp9jqYYKa7Kl2V3MY5-2">
          <mxGeometry relative="1" as="geometry" />
        </mxCell>
        <mxCell id="pBSp9jqYYKa7Kl2V3MY5-1" value="Start" style="ellipse;whiteSpace=wrap;html=1;" vertex="1" parent="1">
          <mxGeometry x="340" y="20" width="120" height="60" as="geometry" />
        </mxCell>
        <mxCell id="pBSp9jqYYKa7Kl2V3MY5-6" value="" style="edgeStyle=orthogonalEdgeStyle;rounded=0;orthogonalLoop=1;jettySize=auto;html=1;" edge="1" parent="1" source="pBSp9jqYYKa7Kl2V3MY5-2" target="pBSp9jqYYKa7Kl2V3MY5-3">
          <mxGeometry relative="1" as="geometry" />
        </mxCell>
        <mxCell id="pBSp9jqYYKa7Kl2V3MY5-2" value="long fattoriale=1" style="rounded=0;whiteSpace=wrap;html=1;" vertex="1" parent="1">
          <mxGeometry x="340" y="110" width="120" height="60" as="geometry" />
        </mxCell>
        <mxCell id="pBSp9jqYYKa7Kl2V3MY5-7" value="" style="edgeStyle=orthogonalEdgeStyle;rounded=0;orthogonalLoop=1;jettySize=auto;html=1;" edge="1" parent="1" source="pBSp9jqYYKa7Kl2V3MY5-3" target="pBSp9jqYYKa7Kl2V3MY5-4">
          <mxGeometry relative="1" as="geometry" />
        </mxCell>
        <mxCell id="pBSp9jqYYKa7Kl2V3MY5-9" style="edgeStyle=orthogonalEdgeStyle;rounded=0;orthogonalLoop=1;jettySize=auto;html=1;" edge="1" parent="1" source="pBSp9jqYYKa7Kl2V3MY5-3" target="pBSp9jqYYKa7Kl2V3MY5-10">
          <mxGeometry relative="1" as="geometry">
            <mxPoint x="600" y="340" as="targetPoint" />
          </mxGeometry>
        </mxCell>
        <mxCell id="pBSp9jqYYKa7Kl2V3MY5-3" value="&lt;div&gt;for(int i=1; i&amp;lt;=20;&lt;/div&gt;&lt;div&gt;i++&lt;br&gt;&lt;/div&gt;" style="shape=hexagon;perimeter=hexagonPerimeter2;whiteSpace=wrap;html=1;fixedSize=1;" vertex="1" parent="1">
          <mxGeometry x="340" y="200" width="120" height="80" as="geometry" />
        </mxCell>
        <mxCell id="pBSp9jqYYKa7Kl2V3MY5-8" style="edgeStyle=orthogonalEdgeStyle;rounded=0;orthogonalLoop=1;jettySize=auto;html=1;entryX=0;entryY=0.5;entryDx=0;entryDy=0;" edge="1" parent="1" source="pBSp9jqYYKa7Kl2V3MY5-4" target="pBSp9jqYYKa7Kl2V3MY5-3">
          <mxGeometry relative="1" as="geometry">
            <Array as="points">
              <mxPoint x="280" y="340" />
              <mxPoint x="280" y="240" />
            </Array>
          </mxGeometry>
        </mxCell>
        <mxCell id="pBSp9jqYYKa7Kl2V3MY5-4" value="fattoriale *= i" style="rounded=0;whiteSpace=wrap;html=1;" vertex="1" parent="1">
          <mxGeometry x="340" y="310" width="120" height="60" as="geometry" />
        </mxCell>
        <mxCell id="pBSp9jqYYKa7Kl2V3MY5-14" value="" style="edgeStyle=orthogonalEdgeStyle;rounded=0;orthogonalLoop=1;jettySize=auto;html=1;" edge="1" parent="1" source="pBSp9jqYYKa7Kl2V3MY5-10" target="pBSp9jqYYKa7Kl2V3MY5-13">
          <mxGeometry relative="1" as="geometry" />
        </mxCell>
        <mxCell id="pBSp9jqYYKa7Kl2V3MY5-10" value="fattoriale" style="shape=parallelogram;perimeter=parallelogramPerimeter;whiteSpace=wrap;html=1;fixedSize=1;" vertex="1" parent="1">
          <mxGeometry x="540" y="310" width="120" height="60" as="geometry" />
        </mxCell>
        <mxCell id="pBSp9jqYYKa7Kl2V3MY5-12" value="O" style="text;html=1;align=center;verticalAlign=middle;resizable=0;points=[];autosize=1;strokeColor=none;fillColor=none;" vertex="1" parent="1">
          <mxGeometry x="625" y="285" width="30" height="30" as="geometry" />
        </mxCell>
        <mxCell id="pBSp9jqYYKa7Kl2V3MY5-13" value="End" style="ellipse;whiteSpace=wrap;html=1;" vertex="1" parent="1">
          <mxGeometry x="540" y="400" width="120" height="60" as="geometry" />
        </mxCell>
      </root>
    </mxGraphModel>
  </diagram>
</mxfile>
